<mxfile host="app.diagrams.net" modified="2024-05-25T14:57:50.695Z" agent="Mozilla/5.0 (Windows NT 10.0; Win64; x64) AppleWebKit/537.36 (KHTML, like Gecko) Chrome/125.0.0.0 Safari/537.36" etag="9zTi_2vcKg-CDAK8wRjU" version="24.4.8" type="device">
  <diagram name="Strona-1" id="1RoU-k2u6P2cWmenWnG_">
    <mxGraphModel dx="2501" dy="738" grid="1" gridSize="10" guides="1" tooltips="1" connect="1" arrows="1" fold="1" page="1" pageScale="1" pageWidth="827" pageHeight="1169" math="0" shadow="0">
      <root>
        <mxCell id="0" />
        <mxCell id="1" parent="0" />
        <mxCell id="lOx_cBZLgKAw0vCkCGz8-4" value="" style="edgeStyle=orthogonalEdgeStyle;rounded=0;orthogonalLoop=1;jettySize=auto;html=1;" parent="1" source="lOx_cBZLgKAw0vCkCGz8-2" target="lOx_cBZLgKAw0vCkCGz8-3" edge="1">
          <mxGeometry relative="1" as="geometry" />
        </mxCell>
        <mxCell id="lOx_cBZLgKAw0vCkCGz8-2" value="Login to the plaftorm" style="rounded=1;whiteSpace=wrap;html=1;" parent="1" vertex="1">
          <mxGeometry x="330" y="160" width="120" height="60" as="geometry" />
        </mxCell>
        <mxCell id="lOx_cBZLgKAw0vCkCGz8-7" value="No" style="edgeStyle=orthogonalEdgeStyle;rounded=0;orthogonalLoop=1;jettySize=auto;html=1;entryX=1;entryY=0.5;entryDx=0;entryDy=0;" parent="1" source="lOx_cBZLgKAw0vCkCGz8-3" target="lOx_cBZLgKAw0vCkCGz8-5" edge="1">
          <mxGeometry relative="1" as="geometry">
            <Array as="points">
              <mxPoint x="500" y="320" />
              <mxPoint x="500" y="50" />
            </Array>
          </mxGeometry>
        </mxCell>
        <mxCell id="lOx_cBZLgKAw0vCkCGz8-9" value="Yes" style="edgeStyle=orthogonalEdgeStyle;rounded=0;orthogonalLoop=1;jettySize=auto;html=1;" parent="1" source="lOx_cBZLgKAw0vCkCGz8-3" target="lOx_cBZLgKAw0vCkCGz8-8" edge="1">
          <mxGeometry relative="1" as="geometry" />
        </mxCell>
        <mxCell id="lOx_cBZLgKAw0vCkCGz8-3" value="&lt;span style=&quot;font-size: 11px; text-wrap: nowrap; background-color: rgb(255, 255, 255);&quot;&gt;Is the data&amp;nbsp;&lt;/span&gt;&lt;div&gt;&lt;span style=&quot;font-size: 11px; text-wrap: nowrap; background-color: rgb(255, 255, 255);&quot;&gt;correct?&lt;/span&gt;&lt;/div&gt;" style="rhombus;whiteSpace=wrap;html=1;rounded=1;" parent="1" vertex="1">
          <mxGeometry x="350" y="280" width="80" height="80" as="geometry" />
        </mxCell>
        <mxCell id="lOx_cBZLgKAw0vCkCGz8-6" value="" style="edgeStyle=orthogonalEdgeStyle;rounded=0;orthogonalLoop=1;jettySize=auto;html=1;" parent="1" source="lOx_cBZLgKAw0vCkCGz8-5" target="lOx_cBZLgKAw0vCkCGz8-2" edge="1">
          <mxGeometry relative="1" as="geometry" />
        </mxCell>
        <mxCell id="lOx_cBZLgKAw0vCkCGz8-5" value="Open platform" style="rounded=0;whiteSpace=wrap;html=1;" parent="1" vertex="1">
          <mxGeometry x="330" y="20" width="120" height="60" as="geometry" />
        </mxCell>
        <mxCell id="lOx_cBZLgKAw0vCkCGz8-11" value="Admin" style="edgeStyle=orthogonalEdgeStyle;rounded=0;orthogonalLoop=1;jettySize=auto;html=1;" parent="1" source="lOx_cBZLgKAw0vCkCGz8-8" target="lOx_cBZLgKAw0vCkCGz8-10" edge="1">
          <mxGeometry relative="1" as="geometry" />
        </mxCell>
        <mxCell id="lOx_cBZLgKAw0vCkCGz8-13" value="Client" style="edgeStyle=orthogonalEdgeStyle;rounded=0;orthogonalLoop=1;jettySize=auto;html=1;" parent="1" source="lOx_cBZLgKAw0vCkCGz8-8" target="lOx_cBZLgKAw0vCkCGz8-12" edge="1">
          <mxGeometry relative="1" as="geometry" />
        </mxCell>
        <mxCell id="lOx_cBZLgKAw0vCkCGz8-15" value="Worker Company" style="edgeStyle=orthogonalEdgeStyle;rounded=0;orthogonalLoop=1;jettySize=auto;html=1;" parent="1" source="lOx_cBZLgKAw0vCkCGz8-8" target="lOx_cBZLgKAw0vCkCGz8-14" edge="1">
          <mxGeometry relative="1" as="geometry" />
        </mxCell>
        <mxCell id="lOx_cBZLgKAw0vCkCGz8-8" value="What kind of account?" style="rhombus;whiteSpace=wrap;html=1;rounded=1;" parent="1" vertex="1">
          <mxGeometry x="345" y="440" width="90" height="90" as="geometry" />
        </mxCell>
        <mxCell id="lOx_cBZLgKAw0vCkCGz8-10" value="Users Accounts&lt;br&gt;Order list" style="whiteSpace=wrap;html=1;rounded=1;" parent="1" vertex="1">
          <mxGeometry x="-250" y="640" width="120" height="60" as="geometry" />
        </mxCell>
        <mxCell id="lOx_cBZLgKAw0vCkCGz8-12" value="Order list" style="whiteSpace=wrap;html=1;rounded=1;" parent="1" vertex="1">
          <mxGeometry x="330" y="625" width="120" height="60" as="geometry" />
        </mxCell>
        <mxCell id="lOx_cBZLgKAw0vCkCGz8-14" value="Order list" style="whiteSpace=wrap;html=1;rounded=1;" parent="1" vertex="1">
          <mxGeometry x="690" y="625" width="120" height="60" as="geometry" />
        </mxCell>
        <mxCell id="lOx_cBZLgKAw0vCkCGz8-38" value="" style="edgeStyle=orthogonalEdgeStyle;rounded=0;orthogonalLoop=1;jettySize=auto;html=1;" parent="1" source="lOx_cBZLgKAw0vCkCGz8-19" target="lOx_cBZLgKAw0vCkCGz8-37" edge="1">
          <mxGeometry relative="1" as="geometry" />
        </mxCell>
        <mxCell id="lOx_cBZLgKAw0vCkCGz8-19" value="Select of options" style="rhombus;whiteSpace=wrap;html=1;rounded=1;" parent="1" vertex="1">
          <mxGeometry x="350" y="730" width="80" height="80" as="geometry" />
        </mxCell>
        <mxCell id="lOx_cBZLgKAw0vCkCGz8-26" value="" style="edgeStyle=orthogonalEdgeStyle;rounded=0;orthogonalLoop=1;jettySize=auto;html=1;entryX=0.5;entryY=0;entryDx=0;entryDy=0;" parent="1" source="lOx_cBZLgKAw0vCkCGz8-21" target="lOx_cBZLgKAw0vCkCGz8-25" edge="1">
          <mxGeometry relative="1" as="geometry" />
        </mxCell>
        <mxCell id="lOx_cBZLgKAw0vCkCGz8-21" value="Create order" style="whiteSpace=wrap;html=1;rounded=1;" parent="1" vertex="1">
          <mxGeometry x="170" y="790" width="120" height="60" as="geometry" />
        </mxCell>
        <mxCell id="lOx_cBZLgKAw0vCkCGz8-36" value="" style="edgeStyle=orthogonalEdgeStyle;rounded=0;orthogonalLoop=1;jettySize=auto;html=1;" parent="1" source="lOx_cBZLgKAw0vCkCGz8-23" target="lOx_cBZLgKAw0vCkCGz8-35" edge="1">
          <mxGeometry relative="1" as="geometry" />
        </mxCell>
        <mxCell id="lOx_cBZLgKAw0vCkCGz8-23" value="Edit order" style="whiteSpace=wrap;html=1;rounded=1;" parent="1" vertex="1">
          <mxGeometry x="400" y="1050" width="120" height="60" as="geometry" />
        </mxCell>
        <mxCell id="lOx_cBZLgKAw0vCkCGz8-48" value="" style="edgeStyle=orthogonalEdgeStyle;rounded=0;orthogonalLoop=1;jettySize=auto;html=1;" parent="1" source="lOx_cBZLgKAw0vCkCGz8-25" target="lOx_cBZLgKAw0vCkCGz8-47" edge="1">
          <mxGeometry relative="1" as="geometry" />
        </mxCell>
        <mxCell id="lOx_cBZLgKAw0vCkCGz8-25" value="Add/Delete product to order.&amp;nbsp;" style="whiteSpace=wrap;html=1;rounded=1;" parent="1" vertex="1">
          <mxGeometry x="170" y="900" width="120" height="60" as="geometry" />
        </mxCell>
        <mxCell id="lOx_cBZLgKAw0vCkCGz8-30" value="" style="endArrow=classic;html=1;rounded=0;exitX=0.5;exitY=1;exitDx=0;exitDy=0;" parent="1" source="lOx_cBZLgKAw0vCkCGz8-12" target="lOx_cBZLgKAw0vCkCGz8-19" edge="1">
          <mxGeometry width="50" height="50" relative="1" as="geometry">
            <mxPoint x="190" y="840" as="sourcePoint" />
            <mxPoint x="240" y="790" as="targetPoint" />
          </mxGeometry>
        </mxCell>
        <mxCell id="lOx_cBZLgKAw0vCkCGz8-31" value="" style="endArrow=classic;html=1;rounded=0;exitX=0;exitY=0.5;exitDx=0;exitDy=0;entryX=0.5;entryY=0;entryDx=0;entryDy=0;" parent="1" source="lOx_cBZLgKAw0vCkCGz8-19" target="lOx_cBZLgKAw0vCkCGz8-21" edge="1">
          <mxGeometry width="50" height="50" relative="1" as="geometry">
            <mxPoint x="140" y="870" as="sourcePoint" />
            <mxPoint x="190" y="820" as="targetPoint" />
            <Array as="points">
              <mxPoint x="230" y="770" />
            </Array>
          </mxGeometry>
        </mxCell>
        <mxCell id="bvQp0RQ2hgHAjueStc8w-2" value="" style="edgeStyle=orthogonalEdgeStyle;rounded=0;orthogonalLoop=1;jettySize=auto;html=1;" edge="1" parent="1" source="lOx_cBZLgKAw0vCkCGz8-35" target="bvQp0RQ2hgHAjueStc8w-1">
          <mxGeometry relative="1" as="geometry" />
        </mxCell>
        <mxCell id="lOx_cBZLgKAw0vCkCGz8-35" value="Add/Delete product to order" style="whiteSpace=wrap;html=1;rounded=1;" parent="1" vertex="1">
          <mxGeometry x="400" y="1180" width="120" height="60" as="geometry" />
        </mxCell>
        <mxCell id="lOx_cBZLgKAw0vCkCGz8-43" value="" style="edgeStyle=orthogonalEdgeStyle;rounded=0;orthogonalLoop=1;jettySize=auto;html=1;" parent="1" source="lOx_cBZLgKAw0vCkCGz8-37" target="lOx_cBZLgKAw0vCkCGz8-42" edge="1">
          <mxGeometry relative="1" as="geometry" />
        </mxCell>
        <mxCell id="lOx_cBZLgKAw0vCkCGz8-37" value="Choice order" style="whiteSpace=wrap;html=1;rounded=1;" parent="1" vertex="1">
          <mxGeometry x="520" y="820" width="120" height="60" as="geometry" />
        </mxCell>
        <mxCell id="lOx_cBZLgKAw0vCkCGz8-54" value="confirmed" style="edgeStyle=orthogonalEdgeStyle;rounded=0;orthogonalLoop=1;jettySize=auto;html=1;" parent="1" source="lOx_cBZLgKAw0vCkCGz8-42" target="lOx_cBZLgKAw0vCkCGz8-53" edge="1">
          <mxGeometry relative="1" as="geometry" />
        </mxCell>
        <mxCell id="lOx_cBZLgKAw0vCkCGz8-42" value="Status of order?" style="rhombus;whiteSpace=wrap;html=1;rounded=1;" parent="1" vertex="1">
          <mxGeometry x="540" y="950" width="80" height="80" as="geometry" />
        </mxCell>
        <mxCell id="lOx_cBZLgKAw0vCkCGz8-46" value="buffer" style="endArrow=classic;html=1;rounded=0;exitX=0.426;exitY=0.945;exitDx=0;exitDy=0;exitPerimeter=0;entryX=0.5;entryY=0;entryDx=0;entryDy=0;" parent="1" source="lOx_cBZLgKAw0vCkCGz8-42" target="lOx_cBZLgKAw0vCkCGz8-23" edge="1">
          <mxGeometry width="50" height="50" relative="1" as="geometry">
            <mxPoint x="630" y="1140" as="sourcePoint" />
            <mxPoint x="680" y="1090" as="targetPoint" />
            <Array as="points">
              <mxPoint x="460" y="1026" />
            </Array>
          </mxGeometry>
        </mxCell>
        <mxCell id="lOx_cBZLgKAw0vCkCGz8-50" value="Yes" style="edgeStyle=orthogonalEdgeStyle;rounded=0;orthogonalLoop=1;jettySize=auto;html=1;" parent="1" source="lOx_cBZLgKAw0vCkCGz8-47" target="lOx_cBZLgKAw0vCkCGz8-49" edge="1">
          <mxGeometry relative="1" as="geometry" />
        </mxCell>
        <mxCell id="lOx_cBZLgKAw0vCkCGz8-47" value="Confirm order?" style="rhombus;whiteSpace=wrap;html=1;rounded=1;" parent="1" vertex="1">
          <mxGeometry x="190" y="1030" width="80" height="80" as="geometry" />
        </mxCell>
        <mxCell id="lOx_cBZLgKAw0vCkCGz8-49" value="Add order" style="whiteSpace=wrap;html=1;rounded=1;" parent="1" vertex="1">
          <mxGeometry x="160" y="1180" width="120" height="60" as="geometry" />
        </mxCell>
        <mxCell id="lOx_cBZLgKAw0vCkCGz8-51" value="" style="endArrow=classic;html=1;rounded=0;exitX=0;exitY=0.5;exitDx=0;exitDy=0;entryX=0;entryY=0.5;entryDx=0;entryDy=0;" parent="1" source="lOx_cBZLgKAw0vCkCGz8-49" target="lOx_cBZLgKAw0vCkCGz8-12" edge="1">
          <mxGeometry width="50" height="50" relative="1" as="geometry">
            <mxPoint x="120" y="1120" as="sourcePoint" />
            <mxPoint x="170" y="1070" as="targetPoint" />
            <Array as="points">
              <mxPoint x="160" y="655" />
            </Array>
          </mxGeometry>
        </mxCell>
        <mxCell id="lOx_cBZLgKAw0vCkCGz8-52" value="No" style="endArrow=classic;html=1;rounded=0;exitX=1;exitY=0.5;exitDx=0;exitDy=0;entryX=0;entryY=0.5;entryDx=0;entryDy=0;" parent="1" source="lOx_cBZLgKAw0vCkCGz8-47" target="lOx_cBZLgKAw0vCkCGz8-12" edge="1">
          <mxGeometry width="50" height="50" relative="1" as="geometry">
            <mxPoint x="340" y="1040" as="sourcePoint" />
            <mxPoint x="390" y="990" as="targetPoint" />
            <Array as="points">
              <mxPoint x="330" y="1070" />
            </Array>
          </mxGeometry>
        </mxCell>
        <mxCell id="lOx_cBZLgKAw0vCkCGz8-53" value="" style="whiteSpace=wrap;html=1;rounded=1;" parent="1" vertex="1">
          <mxGeometry x="670" y="1050" width="120" height="60" as="geometry" />
        </mxCell>
        <mxCell id="bvQp0RQ2hgHAjueStc8w-1" value="Confirm order?" style="rhombus;whiteSpace=wrap;html=1;rounded=1;" vertex="1" parent="1">
          <mxGeometry x="420" y="1310" width="80" height="80" as="geometry" />
        </mxCell>
        <mxCell id="bvQp0RQ2hgHAjueStc8w-3" value="Yes" style="endArrow=classic;html=1;rounded=0;exitX=0;exitY=0.5;exitDx=0;exitDy=0;entryX=0.008;entryY=0.367;entryDx=0;entryDy=0;entryPerimeter=0;" edge="1" parent="1" source="bvQp0RQ2hgHAjueStc8w-1" target="lOx_cBZLgKAw0vCkCGz8-12">
          <mxGeometry width="50" height="50" relative="1" as="geometry">
            <mxPoint x="260" y="1380" as="sourcePoint" />
            <mxPoint x="110" y="1300" as="targetPoint" />
            <Array as="points">
              <mxPoint x="70" y="1350" />
              <mxPoint x="70" y="647" />
            </Array>
          </mxGeometry>
        </mxCell>
      </root>
    </mxGraphModel>
  </diagram>
</mxfile>
